<?xml version="1.0" encoding="utf-8"?>
<!-- Generator: Adobe Illustrator 25.4.1, SVG Export Plug-In . SVG Version: 6.00 Build 0)  -->
<svg version="1.1" id="Capa_1" xmlns="http://www.w3.org/2000/svg" xmlns:xlink="http://www.w3.org/1999/xlink" x="0px" y="0px"
	 viewBox="0 0 1104 302" style="enable-background:new 0 0 1104 302;" xml:space="preserve">
<style type="text/css">
	.st0{fill:#F6B200;}
	.st1{fill:#000D50;}
</style>
<path class="st0" d="M108.77,5.45c-44.79,0-81.11,36.31-81.11,81.11c0,18.54,6.23,35.61,16.7,49.27c9.57,2.42,21.87,0.96,21.87,0.96
	c-8.56-9.93-0.15-11.58-0.15-11.58l71.71-1.26l-45.21,42.1c5.23,1.06,10.65,1.62,16.19,1.62c44.79,0,81.11-36.31,81.11-81.11
	S153.56,5.45,108.77,5.45z"/>
<g>
	<path class="st1" d="M559.8,122.31v45.96h-10.27v-45.96h-17.02v-10.2h44.31v10.2H559.8z"/>
	<path class="st1" d="M635.98,160.92c-5.7,5.75-12.62,8.62-20.77,8.62c-8.15,0-15.1-2.87-20.84-8.62c-5.7-5.7-8.55-12.62-8.55-20.77
		c0-8.15,2.85-15.07,8.55-20.77c5.85-5.75,12.79-8.62,20.84-8.62c8.1,0,15.02,2.87,20.77,8.62c5.75,5.75,8.62,12.67,8.62,20.77
		C644.6,148.25,641.72,155.17,635.98,160.92z M628.7,126.66c-3.75-3.75-8.25-5.62-13.5-5.62c-5.3,0-9.8,1.87-13.5,5.62
		c-3.8,3.8-5.7,8.3-5.7,13.49c0,5.25,1.9,9.75,5.7,13.5c3.75,3.8,8.25,5.7,13.5,5.7c5.2,0,9.7-1.9,13.5-5.7
		c3.75-3.7,5.62-8.2,5.62-13.5C634.33,134.9,632.45,130.4,628.7,126.66z"/>
	<path class="st1" d="M695.73,140.67c-3.55,3.05-7.75,4.57-12.6,4.57h-13.94v23.02h-10.2v-56.15h24.14c4.8,0,8.97,1.5,12.52,4.5
		c3.8,3.3,5.7,7.32,5.7,12.07C701.35,133.48,699.48,137.48,695.73,140.67z M688.68,124.11c-1.6-1.2-3.45-1.8-5.55-1.8h-13.94v12.75
		h13.94c2.1,0,3.95-0.6,5.55-1.8c1.6-1.15,2.4-2.67,2.4-4.57C691.08,126.78,690.28,125.26,688.68,124.11z"/>
	<path class="st1" d="M763.58,160.92c-5.7,5.75-12.62,8.62-20.77,8.62c-8.15,0-15.1-2.87-20.84-8.62c-5.7-5.7-8.55-12.62-8.55-20.77
		c0-8.15,2.85-15.07,8.55-20.77c5.85-5.75,12.8-8.62,20.84-8.62c8.1,0,15.02,2.87,20.77,8.62c5.75,5.75,8.62,12.67,8.62,20.77
		C772.2,148.25,769.33,155.17,763.58,160.92z M756.31,126.66c-3.75-3.75-8.25-5.62-13.49-5.62c-5.3,0-9.8,1.87-13.5,5.62
		c-3.8,3.8-5.7,8.3-5.7,13.49c0,5.25,1.9,9.75,5.7,13.5c3.75,3.8,8.25,5.7,13.5,5.7c5.2,0,9.7-1.9,13.49-5.7
		c3.75-3.7,5.62-8.2,5.62-13.5C761.93,134.9,760.06,130.4,756.31,126.66z"/>
	<path class="st1" d="M838.85,156.27c-1.35,2.05-2.92,3.9-4.72,5.55c-1.8,1.65-3.76,3.05-5.88,4.2c-2.13,1.15-4.36,2.02-6.71,2.62
		c-2.35,0.6-4.75,0.9-7.2,0.9c-8.15,0-15.1-2.87-20.84-8.62c-5.7-5.7-8.55-12.62-8.55-20.77c0-8.1,2.85-14.99,8.55-20.69
		c5.8-5.8,12.74-8.7,20.84-8.7c4.65,0,9.16,1.18,13.53,3.52c4.37,2.35,8.13,5.65,11.28,9.9l-8.4,5.85
		c-2.15-2.85-4.67-5.06-7.57-6.64c-2.9-1.57-5.85-2.36-8.85-2.36c-5.3,0-9.8,1.87-13.5,5.62c-3.8,3.8-5.7,8.3-5.7,13.49
		c0,5.25,1.9,9.75,5.7,13.5c3.75,3.8,8.25,5.7,13.5,5.7c6,0,10.87-2.25,14.62-6.75v-7.35h-16.49v-10.2h26.69v20.24L838.85,156.27z"
		/>
	<path class="st1" d="M891.48,168.26L878.96,149c-1.6-2.5-4.32-3.75-8.17-3.75h-6.07v23.02h-10.2v-56.15h24.14
		c4.8,0,8.97,1.5,12.52,4.5c3.8,3.3,5.7,7.32,5.7,12.07c0,3.8-1.27,7.2-3.82,10.2c-1.75,1.95-3.72,3.45-5.92,4.5
		c0.45,0.5,0.9,1.06,1.35,1.69c0.45,0.63,0.93,1.29,1.43,1.99h-0.08l13.8,21.22H891.48z M884.21,124.11c-1.6-1.2-3.45-1.8-5.55-1.8
		h-13.94v12.75h13.94c2.1,0,3.95-0.6,5.55-1.8c1.6-1.15,2.4-2.67,2.4-4.57C886.61,126.78,885.81,125.26,884.21,124.11z"/>
	<path class="st1" d="M948.68,168.26l-4.42-11.85h-19.94l-4.35,11.85H909.1l20.47-56.15h9.52l20.47,56.15H948.68z M927.99,146.22
		h12.6l-6.3-17.32L927.99,146.22z"/>
	<path class="st1" d="M981.75,122.31v12.75h23.62v10.2h-23.62v23.02h-10.2v-56.15h40.41v10.2H981.75z"/>
	<path class="st1" d="M1025.68,168.26v-56.15h10.2v56.15H1025.68z M1033.63,110.54h-7.87l5.77-11.55h11.7L1033.63,110.54z"/>
	<path class="st1" d="M1087.38,168.26l-4.42-11.85h-19.94l-4.35,11.85h-10.87l20.47-56.15h9.52l20.47,56.15H1087.38z
		 M1066.69,146.22h12.6l-6.3-17.32L1066.69,146.22z"/>
</g>
<g>
	<path class="st1" d="M587.39,245.69c-1.35,2.05-2.92,3.9-4.72,5.55c-1.8,1.65-3.76,3.05-5.89,4.2c-2.13,1.15-4.36,2.02-6.71,2.62
		c-2.35,0.6-4.75,0.9-7.2,0.9c-8.15,0-15.1-2.87-20.84-8.62c-5.7-5.7-8.55-12.62-8.55-20.77c0-8.1,2.85-14.99,8.55-20.69
		c5.8-5.8,12.75-8.7,20.84-8.7c4.65,0,9.16,1.18,13.53,3.52c4.37,2.35,8.13,5.65,11.28,9.89l-8.4,5.85
		c-2.15-2.85-4.67-5.06-7.57-6.64c-2.9-1.58-5.85-2.36-8.85-2.36c-5.3,0-9.8,1.87-13.5,5.62c-3.8,3.8-5.7,8.3-5.7,13.5
		c0,5.25,1.9,9.75,5.7,13.5c3.75,3.8,8.25,5.7,13.5,5.7c6,0,10.87-2.25,14.62-6.75v-7.35H561v-10.2h26.69v20.24L587.39,245.69z"/>
	<path class="st1" d="M603.06,257.69v-56.15h40.41v10.19h-30.21v12.75h23.62v10.2h-23.62v12.74h30.21v10.27H603.06z"/>
	<path class="st1" d="M707.95,250.34c-5.7,5.75-12.62,8.62-20.77,8.62c-8.15,0-15.09-2.87-20.84-8.62
		c-5.7-5.7-8.55-12.62-8.55-20.77s2.85-15.07,8.55-20.77c5.85-5.75,12.8-8.62,20.84-8.62c8.1,0,15.02,2.87,20.77,8.62
		c5.75,5.75,8.62,12.67,8.62,20.77S713.7,244.59,707.95,250.34z M700.68,216.08c-3.75-3.75-8.25-5.62-13.49-5.62
		c-5.3,0-9.8,1.87-13.49,5.62c-3.8,3.8-5.7,8.3-5.7,13.5c0,5.25,1.9,9.75,5.7,13.5c3.75,3.8,8.25,5.7,13.49,5.7
		c5.2,0,9.7-1.9,13.49-5.7c3.75-3.7,5.62-8.2,5.62-13.5C706.3,224.32,704.42,219.82,700.68,216.08z"/>
	<path class="st1" d="M772.27,249.44c-5.5,5.5-12.1,8.25-19.79,8.25h-21.52v-56.15h21.52c7.75,0,14.34,2.75,19.79,8.25
		c5.5,5.4,8.25,12,8.25,19.79C780.52,237.32,777.77,243.94,772.27,249.44z M765.08,216.98c-3.55-3.5-7.75-5.25-12.6-5.25h-11.32
		v35.69h11.32c4.85,0,9.05-1.75,12.6-5.25c3.5-3.5,5.25-7.7,5.25-12.6S768.58,220.47,765.08,216.98z"/>
	<path class="st1" d="M795.89,257.69v-56.15h40.41v10.19h-30.21v12.75h23.62v10.2h-23.62v12.74h30.21v10.27H795.89z"/>
	<path class="st1" d="M889.31,255.06c-4.3,2.6-9.27,3.9-14.92,3.9c-5.7,0-10.65-1.32-14.85-3.97c-5.3-3.2-7.95-8.25-7.95-15.14h10.2
		c0,3.6,1.37,6.05,4.12,7.35l-0.07-0.07c2.35,1.1,5.2,1.65,8.55,1.65c3.45,0,6.3-0.53,8.55-1.58c2.7-1.25,4.05-3.1,4.05-5.55
		c0-3-2.45-5.07-7.35-6.22v0.08c-1.35-0.25-2.71-0.53-4.09-0.82c-1.38-0.3-2.76-0.6-4.16-0.9l0.07,0.08
		c-1.4-0.25-2.82-0.55-4.27-0.9c-1.45-0.35-2.85-0.68-4.2-0.98c-6.75-2.55-10.12-7.42-10.12-14.62c0-5.4,2.45-9.72,7.35-12.97
		c4.15-2.8,8.87-4.2,14.17-4.2c5.35,0,10.09,1.4,14.24,4.2c4.85,3.2,7.27,8.15,7.27,14.84h-10.2c0-3.4-1.2-5.75-3.6-7.05
		c-2.1-1.15-4.67-1.72-7.72-1.72c-2.9,0-5.45,0.55-7.65,1.65c-2.4,1.3-3.6,3.05-3.6,5.25c0,3.2,2.48,5.35,7.42,6.45
		c1.35,0.3,2.7,0.59,4.05,0.86c1.35,0.28,2.72,0.56,4.12,0.86c1.4,0.3,2.75,0.59,4.05,0.86c1.3,0.28,2.65,0.54,4.05,0.79
		c6.95,2.6,10.42,7.42,10.42,14.47C897.26,247.24,894.61,251.71,889.31,255.06z"/>
	<path class="st1" d="M912.62,257.69v-56.15h10.2v56.15H912.62z"/>
	<path class="st1" d="M974.33,257.69l-4.42-11.84h-19.94l-4.35,11.84h-10.87l20.47-56.15h9.52l20.47,56.15H974.33z M953.63,235.64
		h12.6l-6.3-17.32L953.63,235.64z"/>
</g>
<g>
	<path class="st1" d="M244.19,104.25c0,7.84,2.7,14.62,8.11,20.33c5.33,5.71,11.88,8.84,19.65,9.37v34.16
		c-17.21-0.53-31.8-7.01-43.75-19.42c-12.03-12.41-18.05-27.23-18.05-44.44V6.35h34.04V104.25z M337.86,6.35v97.9
		c0,17.21-5.98,32.02-17.94,44.44c-12.03,12.41-26.62,18.89-43.75,19.42v-34.16c7.77-0.53,14.32-3.66,19.65-9.37
		c5.33-5.71,8-12.49,8-20.33V6.35H337.86z"/>
	<path class="st1" d="M357.37,6.23h34.04V168.1h-34.04V6.23z M478.8,55.24c0,10.89-3.28,20.68-9.82,29.36
		c-6.4,8.53-14.7,14.36-24.9,17.48l34.27,66.03h-38.38l-33.13-63.86h-11.08V70.2h34.04c4.11,0,7.61-1.49,10.51-4.46
		c2.89-2.89,4.34-6.4,4.34-10.51s-1.45-7.61-4.34-10.51c-2.89-2.89-6.4-4.34-10.51-4.34h-34.04V6.23h34.04
		c13.48,0,25.02,4.8,34.61,14.39C474,30.22,478.8,41.76,478.8,55.24z"/>
</g>
<rect x="503" y="5.7" class="st0" width="6" height="288.85"/>
<path class="st1" d="M107.2,124.28l30.58-0.33l-43.02,39c0,0,60.61,13.38,86.61-52c0,0-10.71,19.88-15.3,20.08
	c-4.59,0.19-2.87-6.5-1.53-9.56c1.34-3.06,2.87-7.27,2.1-11.09c-0.76-3.82-2.29-4.21,0.19-8.22c2.49-4.02,3.25-7.65,2.1-10.32
	c-1.15-2.68-4.97-5.16-3.63-8.6s1.91-5.35,0.38-5.54c-1.53-0.19-3.06,0.19-4.59-0.96c-1.53-1.15-2.68,1.34-5.74,1.91
	s-6.31,3.06-8.99-0.96c-2.68-4.02-6.12-7.65-7.27-10.52c-1.15-2.87-3.06-3.63-1.53-5.54s2.49-4.02,1.34-6.88s-2.29-4.78-0.96-6.31
	c1.34-1.53,2.1-1.53,1.91-3.44c-0.19-1.91,1.53-4.78,4.59-5.35c3.06-0.57,6.12-2.68,8.41-1.72c2.29,0.96,5.74,2.49,7.27,3.63
	s4.78,1.15,6.12,0.96c1.34-0.19,1.15-3.63-0.96-5.54c-2.1-1.91-4.02-1.53-4.59-0.57c-0.57,0.96-3.44-0.38-3.82-2.49
	c-0.38-2.1-2.29-2.68-2.49-1.53c-0.19,1.15-2.49-0.57-4.21-1.72s-4.02-1.53-4.78,0.38c-0.76,1.91-3.25,7.27-6.5,4.97
	c-3.25-2.29-2.29-5.74-0.57-6.5c1.72-0.76,0-2.87-1.34-4.02c-1.34-1.15-1.91-1.34-4.02-2.68c-2.1-1.34-4.21-4.21-2.29-4.78
	c1.91-0.57,4.97,3.25,5.93,3.06c0.96-0.19,4.97-1.34,1.15-2.87c-3.82-1.53-6.5-2.58-7.65-4.3s-12.43-3.82-16.25-3.82
	c-3.82,0-6.88,4.97-8.03,5.54s-3.06,0.38-3.82-2.1s-2.68-2.49-4.4-2.49s-2.68,0.19-2.87,2.29c-0.19,2.1-1.15,3.82-4.21,2.49
	c-3.06-1.34-7.65,1.72-9.18,2.29s-3.25,0.19-2.87,1.72c0.38,1.53,1.53,2.49,1.34,4.21c-0.19,1.72,0.76,3.25,2.1,1.53
	c1.34-1.72,2.1-4.4,3.25-5.54c1.15-1.15,1.91-3.63,4.78-2.68c2.87,0.96,3.82,2.68,5.35,4.02c1.53,1.34,3.06,4.78,2.29,5.74
	c-0.76,0.96-1.72-0.38-2.87-1.15c-1.15-0.76-5.16,0.57-4.59,1.72c0.57,1.15,3.63,2.29,1.53,3.63c-2.1,1.34-3.06,0.76-4.59,0.76
	s-2.29,0.38-2.29,2.29c0,1.91-2.29,1.72-4.97,3.63c-2.68,1.91-5.93,4.97-7.07,7.46c-1.15,2.49-0.96,7.84-2.1,9.75
	c-1.15,1.91-2.68,0-2.49-1.53c0.19-1.53-0.38-7.46-7.07-3.06s-6.88,12.05-5.35,12.62c1.53,0.57,4.4-4.02,6.5-3.63
	c2.1,0.38-1.53,5.54-0.76,6.69c0.76,1.15,3.44,0.19,3.63,2.29c0.19,2.1-0.76,6.69,1.91,6.88c2.68,0.19,9.56-3.63,13-3.63
	c3.44,0,8.03-0.19,9.56,1.72s3.63,3.06,5.74,3.06c2.1,0,6.12,2.49,5.35,5.16s-2.49,8.6,0.38,8.41c2.87-0.19,8.79-0.19,11.85,0.57
	c3.06,0.76,8.22,3.44,8.03,6.31c-0.19,2.87-4.21,8.79-4.97,11.28s-2.18,7.06-3.25,9.75C111.59,120.99,107.2,124.28,107.2,124.28z"/>
<path class="st1" d="M54.5,32.43c0,0-23.01,21.23-22.27,56.12s18.26,48.54,18.26,48.54l15.74-0.3c0,0-8.76-11.28-0.15-11.58
	s17.67,0,17.67,0s0.89-6.68-2.52-9.65c-3.41-2.97-6.98-4.31-7.42-8.31c-0.45-4.01-1.63-5.94-3.71-7.57
	c-2.08-1.63-4.75-5.64-2.97-9.5c1.78-3.86,5.34-8.61,4.45-10.69s-2.82,0.3-5.79-1.48c-2.97-1.78-3.71-4.16-5.34-5.34
	c-1.63-1.19-2.67-3.27-5.05-3.56c-2.38-0.3-6.98-0.59-6.83-5.05c0.15-4.45,2.52-12.17,0.89-13.36s-2.38,5.05-4.01,4.75
	c-1.63-0.3,0.89-6.38,1.48-8.61s-0.59-4.31,1.63-5.94S58.06,31.09,54.5,32.43z"/>
<path class="st0" d="M24.9,69.97c0,0-1.84,5.53-1.84,12.9c0,0-13.17,19.47-0.17,41.08s39.19,17.4,50.67,15.1l-7.46-9.94l61.56-0.57
	l-46.08,40.72L81,156.83c0,0-34.41,5.35-50.09-4.97S-0.25,125.29,8.92,94.89C8.92,94.89,15.82,77.36,24.9,69.97z"/>
</svg>
